HIERARCHY
ROOT Hips
{
	OFFSET 0.000000 0.000000 0.000000
	CHANNELS 6 Xposition Yposition Zposition Zrotation Yrotation Xrotation 
	JOINT LowerBack
	{
		OFFSET 0.000000 0.000000 0.000000
		CHANNELS 3 Zrotation Yrotation Xrotation
		JOINT Spine
		{
			OFFSET 0.028270 2.035590 -0.193380
			CHANNELS 3 Zrotation Yrotation Xrotation
			JOINT Spine1
			{
				OFFSET 0.056720 2.048850 -0.042750
				CHANNELS 3 Zrotation Yrotation Xrotation
				JOINT Neck
				{
					OFFSET 0.000000 0.000000 0.000000
					CHANNELS 3 Zrotation Yrotation Xrotation
					JOINT Neck1
					{
						OFFSET -0.054170 1.746240 0.172020
						CHANNELS 3 Zrotation Yrotation Xrotation
						JOINT Head
						{
							OFFSET 0.104070 1.761360 -0.123970
							CHANNELS 3 Zrotation Yrotation Xrotation
							End Site
							{
								OFFSET 0.000000 0.000000 0.000000
							}
						}
					}
				}
				JOINT LeftShoulder
				{
					OFFSET 0.000000 0.000000 0.000000
					CHANNELS 3 Zrotation Yrotation Xrotation
					JOINT LeftArm
					{
						OFFSET 3.362410 1.200890 -0.311210
						CHANNELS 3 Zrotation Yrotation Xrotation
						JOINT LeftForeArm
						{
							OFFSET 4.983000 -0.000000 -0.000000
							CHANNELS 3 Zrotation Yrotation Xrotation
							JOINT LeftHand
							{
								OFFSET 3.483560 -0.000000 -0.000000
								CHANNELS 3 Zrotation Yrotation Xrotation
								JOINT LeftFingerBase
								{
									OFFSET 0.000000 0.000000 0.000000
									CHANNELS 3 Zrotation Yrotation Xrotation
									JOINT LeftHandIndex1
									{
										OFFSET 0.715260 -0.000000 -0.000000
										CHANNELS 3 Zrotation Yrotation Xrotation
										End Site
										{
											OFFSET 0.000000 0.000000 0.000000
										}
									}
								}
								JOINT LThumb
								{
									OFFSET 0.000000 0.000000 0.000000
									CHANNELS 3 Zrotation Yrotation Xrotation
									End Site
									{
										OFFSET 0.000000 0.000000 0.000000
									}
								}
							}
						}
					}
				}
				JOINT RightShoulder
				{
					OFFSET 0.000000 0.000000 0.000000
					CHANNELS 3 Zrotation Yrotation Xrotation
					JOINT RightArm
					{
						OFFSET -3.136600 1.374050 -0.404650
						CHANNELS 3 Zrotation Yrotation Xrotation
						JOINT RightForeArm
						{
							OFFSET -5.241900 -0.000000 -0.000000
							CHANNELS 3 Zrotation Yrotation Xrotation
							JOINT RightHand
							{
								OFFSET -3.444170 -0.000000 -0.000000
								CHANNELS 3 Zrotation Yrotation Xrotation
								JOINT RightFingerBase
								{
									OFFSET 0.000000 0.000000 0.000000
									CHANNELS 3 Zrotation Yrotation Xrotation
									JOINT RightHandIndex1
									{
										OFFSET -0.622530 -0.000000 -0.000000
										CHANNELS 3 Zrotation Yrotation Xrotation
										End Site
										{
											OFFSET 0.000000 0.000000 0.000000
										}
									}
								}
								JOINT RThumb
								{
									OFFSET 0.000000 0.000000 0.000000
									CHANNELS 3 Zrotation Yrotation Xrotation
									End Site
									{
										OFFSET 0.000000 0.000000 0.000000
									}
								}
							}
						}
					}
				}
			}
		}
	}
}
}
MOTION
Frames: 17
Frame Time: 0.008333
3.273370 16.959778 1.133696 14.918605 -59.495648 15.420193 3.662844 2.064386 5.011393 2.393732 2.129274 -2.084187 6.254688 2.017833 -0.584207 -12.277719 -13.100414 -11.456126 3.780756 0.421023 -1.524213 0.000000 0.000000 0.000000 16.912523 1.404602 -2.415838 -77.601362 10.373200 3.856604 174.878724 -49.059620 179.921909 6.037720 -1.412098 -0.104616 0.298502 0.638268 0.000000 0.000000 0.000000 0.000000 0.000000 0.000000 0.000000 -37.025264 -1.771505 5.850424 -32.070670 35.190771 -158.896191 -4.358589 3.971670 -0.107950 -18.054081 20.595864 -3.577425 0.531519 -1.024782 -0.000000 0.000000 0.000000 0.000000 0.000000 0.000000 0.000000 
3.282152 16.959865 1.145641 14.768653 -59.572211 15.703822 3.715417 2.033985 5.056962 2.353061 2.097563 -2.065297 6.046668 1.983101 -0.488238 -11.767959 -13.420854 -11.380086 3.669548 0.409594 -1.498303 0.000000 0.000000 0.000000 17.207363 1.525597 -2.406042 -78.190103 10.554880 3.743440 174.784086 -48.942560 179.919896 6.124541 -1.530683 -0.112360 0.301744 0.640737 0.000000 0.000000 0.000000 0.000000 0.000000 0.000000 0.000000 -36.120577 -2.199489 5.875612 -33.784531 35.005916 -158.714930 -4.366736 4.090831 -0.107871 -17.681290 20.857260 -3.548829 0.520531 -1.040839 -0.000000 0.000000 0.000000 0.000000 0.000000 0.000000 0.000000 
3.292819 16.959369 1.157136 14.605512 -59.686294 15.987655 3.754573 2.005347 5.124205 2.299696 2.067281 -2.046990 5.787478 1.952178 -0.424255 -11.208552 -13.593508 -11.275031 3.516634 0.393686 -1.461434 0.000000 0.000000 0.000000 17.559946 1.588184 -2.398027 -78.759220 10.707811 3.678895 174.704476 -48.841004 179.918024 6.215215 -1.640462 -0.119799 0.303632 0.642214 0.000000 0.000000 0.000000 0.000000 0.000000 0.000000 0.000000 -35.057545 -2.500335 5.871730 -35.404096 34.823347 -157.322231 -4.358657 4.241929 -0.107944 -17.293469 20.849025 -3.470457 0.510153 -1.049162 -0.000000 0.000000 0.000000 0.000000 0.000000 0.000000 0.000000 
3.304741 16.958328 1.168020 14.437906 -59.838558 16.267453 3.785949 1.976828 5.211578 2.242002 2.036698 -2.029041 5.506059 1.922838 -0.392014 -10.648294 -13.660755 -11.132007 3.342075 0.374907 -1.412335 0.000000 0.000000 0.000000 17.911215 1.599555 -2.390207 -79.272245 10.828631 3.662459 174.649720 -48.760295 179.916390 6.309614 -1.732050 -0.126625 0.303531 0.642691 0.000000 0.000000 0.000000 0.000000 0.000000 0.000000 0.000000 -33.950528 -2.704587 5.820655 -36.815991 34.748237 -154.940615 -4.320441 4.555310 -0.108384 -16.849916 20.597731 -3.341499 0.498321 -1.051482 -0.000000 0.000000 0.000000 0.000000 0.000000 0.000000 0.000000 
3.317779 16.956493 1.178206 14.266575 -60.023592 16.541095 3.797534 1.950540 5.317176 2.178090 2.008266 -2.014316 5.200497 1.898423 -0.407013 -10.082868 -13.583491 -10.938541 3.144190 0.352847 -1.347455 0.000000 0.000000 0.000000 18.291750 1.542708 -2.377471 -79.740955 10.921200 3.695513 174.618903 -48.705042 179.915044 6.396790 -1.810154 -0.132639 0.301995 0.642559 0.000000 0.000000 0.000000 0.000000 0.000000 0.000000 0.000000 -32.810535 -2.768954 5.691646 -37.817455 34.840383 -150.716646 -4.236050 5.225214 -0.110611 -16.731256 19.747678 -3.183853 0.501688 -1.038267 -0.000000 0.000000 0.000000 0.000000 0.000000 0.000000 0.000000 
3.331747 16.953721 1.187621 14.093173 -60.237945 16.806084 3.787329 1.927362 5.438807 2.114594 1.983085 -2.004533 4.895694 1.880108 -0.480207 -9.552398 -13.350778 -10.676120 2.940456 0.328655 -1.262453 0.000000 0.000000 0.000000 18.674664 1.410836 -2.353567 -80.153614 10.984664 3.777778 174.616820 -48.682787 179.914019 6.473147 -1.870981 -0.137537 0.298918 0.642213 0.000000 0.000000 0.000000 0.000000 0.000000 0.000000 0.000000 -31.764347 -2.666209 5.444810 -38.062083 35.164622 -144.159973 -4.067915 6.528552 -0.116469 -17.125818 18.030055 -2.981913 0.527990 -1.002144 -0.000000 0.000000 0.000000 0.000000 0.000000 0.000000 0.000000 
3.346546 16.949722 1.196180 13.913606 -60.475006 17.062633 3.737681 1.908328 5.568798 2.049952 1.963122 -2.003906 4.593869 1.870778 -0.629052 -9.044623 -12.866315 -10.325961 2.727817 0.301706 -1.151701 0.000000 0.000000 0.000000 19.101370 1.173943 -2.310629 -80.541319 11.033449 3.901043 174.640061 -48.696659 179.913290 6.527856 -1.923394 -0.141723 0.295084 0.642288 0.000000 0.000000 0.000000 0.000000 0.000000 0.000000 0.000000 -30.826929 -2.297240 5.059552 -37.190002 35.569355 -134.660238 -3.778066 8.677495 -0.128867 -18.243116 15.153131 -2.682477 0.582987 -0.931346 -0.000000 0.000000 0.000000 0.000000 0.000000 0.000000 0.000000 
3.361533 16.944605 1.203917 13.732104 -60.738121 17.308714 3.648957 1.885670 5.700870 1.990849 1.941378 -2.009998 4.327195 1.861861 -0.831846 -8.581038 -12.179784 -9.901519 2.522552 0.273929 -1.020118 0.000000 0.000000 0.000000 19.517880 0.857803 -2.251899 -80.886662 11.070506 4.054837 174.689596 -48.737555 179.912870 6.563229 -1.963230 -0.144795 0.290397 0.642648 0.000000 0.000000 0.000000 0.000000 0.000000 0.000000 0.000000 -30.030988 -1.719288 4.590888 -35.353835 35.827064 -123.862313 -3.404493 11.584149 -0.147065 -19.616713 11.633083 -2.234523 0.639631 -0.838261 -0.000000 0.000000 0.000000 0.000000 0.000000 0.000000 0.000000 
3.376133 16.938599 1.210864 13.553112 -61.033951 17.546239 3.534062 1.851064 5.834476 1.942556 1.909428 -2.017104 4.118705 1.842688 -1.051059 -8.177625 -11.436056 -9.441616 2.338583 0.247576 -0.879986 0.000000 0.000000 0.000000 19.852725 0.518225 -2.187837 -81.154553 11.088459 4.233375 174.765353 -48.794120 179.912783 6.585631 -1.985202 -0.146650 0.284619 0.642781 0.000000 0.000000 0.000000 0.000000 0.000000 0.000000 0.000000 -29.346751 -1.091960 4.119532 -33.141616 35.886350 -113.928035 -3.044974 14.935615 -0.166793 -20.788019 8.271386 -1.711028 0.674301 -0.748747 -0.000000 0.000000 0.000000 0.000000 0.000000 0.000000 0.000000 
3.390079 16.931745 1.217124 13.379450 -61.362942 17.778288 3.401125 1.803361 5.970563 1.905185 1.865581 -2.023347 3.968914 1.810819 -1.272816 -7.835337 -10.710364 -8.969568 2.178829 0.223434 -0.738322 0.000000 0.000000 0.000000 20.085951 0.180502 -2.122662 -81.332369 11.083146 4.432447 174.863848 -48.858928 179.912992 6.597940 -1.990287 -0.147291 0.277828 0.642610 0.000000 0.000000 0.000000 0.000000 0.000000 0.000000 0.000000 -28.744736 -0.494231 3.670340 -30.857359 35.840288 -105.530182 -2.746293 18.559549 -0.185368 -21.707941 5.352799 -1.192885 0.686530 -0.674305 -0.000000 0.000000 0.000000 0.000000 0.000000 0.000000 0.000000 
3.403209 16.924010 1.222812 13.211363 -61.723537 18.009332 3.255989 1.744341 6.108952 1.876998 1.810972 -2.028656 3.868488 1.767290 -1.493813 -7.547767 -10.036610 -8.497542 2.042595 0.201656 -0.598608 0.000000 0.000000 0.000000 20.220735 -0.144349 -2.056482 -81.419488 11.051493 4.649377 174.980811 -48.927204 179.913426 6.602781 -1.981057 -0.146923 0.270150 0.642261 0.000000 0.000000 0.000000 0.000000 0.000000 0.000000 0.000000 -28.212959 0.042487 3.240250 -28.578112 35.797329 -98.639479 -2.511413 22.369842 -0.201689 -22.433022 2.908380 -0.720603 0.682218 -0.616816 -0.000000 0.000000 0.000000 0.000000 0.000000 0.000000 0.000000 
3.415382 16.915324 1.228094 13.047818 -62.112283 18.244423 3.099157 1.676254 6.246054 1.854034 1.747500 -2.035378 3.801375 1.714424 -1.719792 -7.295721 -9.389534 -8.028322 1.922167 0.181586 -0.461172 0.000000 0.000000 0.000000 20.282952 -0.463553 -1.986479 -81.430767 11.000569 4.875507 175.111289 -48.995210 179.914000 6.601384 -1.963064 -0.146044 0.261828 0.641978 0.000000 0.000000 0.000000 0.000000 0.000000 0.000000 0.000000 -27.720055 0.544270 2.822824 -26.274294 35.779122 -92.876884 -2.322758 26.342659 -0.215727 -23.047936 0.826163 -0.293989 0.667761 -0.572440 -0.000000 0.000000 0.000000 0.000000 0.000000 0.000000 0.000000 
3.426597 16.905730 1.233152 12.885155 -62.527039 18.488766 2.934544 1.600623 6.379870 1.833855 1.676326 -2.044332 3.755247 1.653463 -1.951085 -7.066394 -8.764692 -7.566723 1.813360 0.162927 -0.327167 0.000000 0.000000 0.000000 20.286222 -0.773039 -1.910887 -81.374951 10.929559 5.106388 175.251516 -49.061029 179.914638 6.598093 -1.938194 -0.144657 0.252903 0.641877 0.000000 0.000000 0.000000 0.000000 0.000000 0.000000 0.000000 -27.249770 1.016645 2.415940 -23.930858 35.812353 -88.004329 -2.163591 30.437407 -0.227366 -23.575741 -0.943504 0.085651 0.646743 -0.538810 -0.000000 0.000000 0.000000 0.000000 0.000000 0.000000 0.000000 
3.436875 16.895280 1.238155 12.719586 -62.965690 18.747456 2.764456 1.518464 6.507278 1.813804 1.598282 -2.056498 3.718110 1.585304 -2.187868 -6.844701 -8.147876 -7.115487 1.710538 0.145234 -0.197080 0.000000 0.000000 0.000000 20.247392 -1.071709 -1.828258 -81.264644 10.840012 5.336492 175.397851 -49.123647 179.915258 6.597447 -1.908759 -0.143163 0.243421 0.642040 0.000000 0.000000 0.000000 0.000000 0.000000 0.000000 0.000000 -26.776615 1.473533 2.022515 -21.539643 35.893008 -83.787102 -2.017949 34.618658 -0.236660 -24.030976 -2.452189 0.421707 0.621831 -0.513401 -0.000000 0.000000 0.000000 0.000000 0.000000 0.000000 0.000000 
3.446138 16.883970 1.243346 12.546588 -63.425125 19.027517 2.591288 1.430689 6.624507 1.791997 1.514237 -2.072862 3.681139 1.510845 -2.430005 -6.617926 -7.517116 -6.675426 1.608255 0.128055 -0.070865 0.000000 0.000000 0.000000 20.182785 -1.361179 -1.737667 -81.116048 10.733687 5.559578 175.546482 -49.181056 179.915809 6.602368 -1.876036 -0.141564 0.233507 0.642494 0.000000 0.000000 0.000000 0.000000 0.000000 0.000000 0.000000 -26.275780 1.936381 1.649375 -19.097197 35.991647 -80.018066 -1.872419 38.861298 -0.243771 -24.421972 -3.748531 0.719475 0.594951 -0.493977 -0.000000 0.000000 0.000000 0.000000 0.000000 0.000000 0.000000 
3.454541 16.871953 1.248893 12.360847 -63.902716 19.332622 2.417472 1.337842 6.730022 1.766934 1.424696 -2.092972 3.637039 1.430429 -2.673297 -6.376008 -6.874308 -6.249230 1.503446 0.111187 0.050821 0.000000 0.000000 0.000000 20.102837 -1.635587 -1.639858 -80.939796 10.606290 5.774160 175.695533 -49.238562 179.916256 6.616753 -1.839871 -0.140061 0.223157 0.643190 0.000000 0.000000 0.000000 0.000000 0.000000 0.000000 0.000000 -25.728559 2.403774 1.303914 -16.621097 36.104936 -76.582159 -1.719275 43.120972 -0.248835 -24.743642 -4.843972 0.977151 0.567404 -0.479446 -0.000000 0.000000 0.000000 0.000000 0.000000 0.000000 0.000000 
3.462121 16.859272 1.254999 12.155178 -64.395516 19.670520 2.247046 1.240790 6.822276 1.737950 1.330443 -2.115961 3.580533 1.344614 -2.912220 -6.111609 -6.231157 -5.839614 1.393759 0.094496 0.167223 0.000000 0.000000 0.000000 20.016497 -1.888173 -1.536057 -80.746745 10.450978 5.980462 175.842699 -49.297827 179.916569 6.642775 -1.799727 -0.138552 0.212445 0.644064 0.000000 0.000000 0.000000 0.000000 0.000000 0.000000 0.000000 -25.120187 2.865211 0.992294 -14.132003 36.239038 -73.393901 -1.555034 47.351661 -0.252072 -24.992751 -5.744741 1.192432 0.540262 -0.468982 -0.000000 0.000000 0.000000 0.000000 0.000000 0.000000 0.000000 
